<svg width="116" height="46" viewBox="0 0 116 46" fill="none" xmlns="http://www.w3.org/2000/svg">
<path fill-rule="evenodd" clip-rule="evenodd" d="M30.3272 0C30.2122 0.184016 30.0967 0.366402 29.9818 0.547742C28.4465 2.97244 27.0297 5.21003 28.347 8.65657C28.7374 9.971 28.7295 11.3717 28.3242 12.6816C27.9188 13.9915 27.1343 15.1518 26.0697 16.0156C24.7826 17.0061 22.7826 17.4617 21.436 15.5303L21.433 15.5088L21.4262 15.5304L19.5449 13.6585L19.5525 13.6561C17.3854 11.4876 15.8721 9.04182 17.5053 6.02199C19.0498 3.17938 20.8023 0.505164 24.941 1.20839C25.575 1.36603 26.2412 1.33572 26.8583 1.12115C27.4753 0.906593 28.0167 0.517027 28.4163 0H30.3272ZM0.920797 22.3744C0.624748 22.2737 0.31231 22.23 0 22.2456V19.3436C0.472681 18.8785 1.04067 18.4993 1.6208 18.1121C3.27659 17.0069 5.03121 15.8357 4.95056 12.4104C7.9209 17.7589 10.7625 21.5424 16.6735 20.0567C17.6636 19.8091 18.4656 20.443 18.822 21.5622C19.3567 23.1965 18.6636 24.3256 17.5547 25.4151C14.2774 28.644 9.07932 28.5647 3.76241 25.1972L3.75964 25.1875C3.09695 24.9908 2.49239 24.6344 1.99912 24.1495C1.49781 23.6566 1.12725 23.0466 0.920948 22.3744L0.920797 22.3744ZM42.4166 24.3158C45.3968 27.3664 47.674 26.4948 50.2879 24.3158L50.2879 24.3155C51.8315 22.5139 51.2193 20.9102 49.8348 19.3659L49.8325 19.3339C45.476 14.9759 36.3769 14.4806 31.6936 18.4424C30.8223 19.1754 29.9411 19.9579 30.3273 21.2653C30.6966 22.5184 31.6326 22.4425 32.5383 22.369C32.7493 22.3519 32.9587 22.3349 33.159 22.3349C33.5696 22.3349 33.9865 22.3285 34.4063 22.322C37.3168 22.2769 40.3658 22.2297 42.4166 24.3158ZM45.2284 39.3607C46.8324 41.6091 46.6245 43.0651 43.9611 44.6894C41.8522 45.977 41.07 45.8779 38.7729 44.6894C35.4204 42.9226 34.5079 39.9308 33.6015 36.9587C32.8616 34.5327 32.1256 32.1198 30.0698 30.3971C35.6739 30.2486 39.9709 32.1106 43.2383 36.3399L43.2479 36.3611L43.248 36.3101C43.7977 36.6234 44.2643 37.0638 44.6088 37.5946C44.9533 38.1253 45.1657 38.7309 45.2282 39.3606L45.2284 39.3607ZM18.667 44.1959C20.2282 43.3467 21.7882 42.4982 22.3467 40.5592L22.3465 40.5586L22.347 40.5592C23.8519 38.301 23.6935 35.8149 22.9608 33.3586C22.4955 31.8035 21.5945 30.2684 19.6143 32.0215L19.6276 32.0291C16.2128 36.2437 11.9965 38.6568 6.14844 37.4789C6.33139 38.1306 6.46105 38.7843 6.58726 39.4207C7.02115 41.6083 7.41434 43.5907 9.79204 44.5805C10.3919 44.7305 10.9918 44.952 11.5927 45.1738C13.6099 45.9186 15.6379 46.6674 17.7129 44.729C18.0252 44.545 18.3461 44.3704 18.667 44.1959ZM63.4468 24.5236H77.3084C77.3138 24.4513 77.3187 24.3814 77.3236 24.3139L77.3236 24.3136L77.3236 24.3134C77.3545 23.8809 77.3785 23.5438 77.447 23.2954C77.4842 21.6263 77.0921 19.9756 76.3084 18.5016C75.576 17.1451 74.4694 16.0277 73.1202 15.2826C71.7042 14.507 70.1105 14.1144 68.4964 14.1436C66.855 14.1176 65.2349 14.5168 63.7934 15.3024C62.4232 16.051 61.291 17.1699 60.526 18.5313C59.7323 19.9565 59.326 21.565 59.3478 23.1963C59.3225 24.8381 59.7398 26.4565 60.5557 27.8812C61.3655 29.2691 62.5585 30.3936 63.9914 31.12C65.5837 31.921 67.3482 32.319 69.1301 32.2789C70.5339 32.2988 71.9286 32.0501 73.2391 31.5459C74.3918 31.0865 75.4124 30.3479 76.2094 29.3966L73.9816 26.8413C73.3569 27.4754 72.6078 27.9734 71.7814 28.3041C70.955 28.6348 70.0692 28.7909 69.1796 28.7627C67.8122 28.8124 66.4662 28.4122 65.3478 27.6237C64.3317 26.8802 63.6488 25.7666 63.4468 24.5236ZM63.3775 21.7701C63.5317 20.5538 64.1272 19.4364 65.0508 18.6303C65.9909 17.8385 67.1886 17.4191 68.4172 17.4517C69.6561 17.413 70.8644 17.8407 71.8034 18.6502C72.7081 19.4563 73.2858 20.5664 73.4272 21.7701H63.3775ZM81.3577 14.639H89.2785C91.01 14.6019 92.7259 14.9716 94.2885 15.7186C95.6804 16.3906 96.8492 17.4498 97.6549 18.7692C98.4786 20.151 98.8971 21.7367 98.8628 23.3451C98.8971 24.9535 98.4786 26.5392 97.6549 27.921C96.8407 29.2382 95.6654 30.2936 94.2688 30.9617C92.707 31.7121 90.991 32.0852 89.2588 32.0512H81.3379L81.3577 14.639ZM89.0608 28.7431C90.5868 28.8198 92.0825 28.2974 93.2291 27.2871C93.7545 26.7749 94.1647 26.1567 94.4328 25.4736C94.7008 24.7905 94.8204 24.0582 94.7836 23.3253C94.8216 22.5922 94.7027 21.8595 94.4346 21.1762C94.1665 20.493 93.7555 19.8749 93.2291 19.3635C92.0825 18.3532 90.5868 17.8308 89.0608 17.9075H85.3874V28.7035L89.0608 28.7431ZM106.417 22.4736V17.8681H115.556V14.6392H102.407V32.0513H106.437V25.7025H114.487V22.4736H106.417Z" fill="#4A7185"/>
</svg>
