<svg width="146" height="48" viewBox="0 0 146 48" fill="none" xmlns="http://www.w3.org/2000/svg">
<path fill-rule="evenodd" clip-rule="evenodd" d="M19.7269 0H18.0042C14.6581 0.134485 11.4052 1.14175 8.56836 2.92186C6.2235 4.38274 4.2423 6.359 2.77527 8.70052C1.30823 11.042 0.393957 13.6872 0.10189 16.4351C-0.190177 19.183 0.147655 21.9614 1.08971 24.5591C2.03176 27.1569 3.55319 29.5057 5.53856 31.4271C8.66896 34.5711 12.8277 36.4806 17.2517 36.8053C20.8765 37.2309 24.5449 36.5398 27.7667 34.8244C34.7073 30.9616 36.7766 24.2265 36.0242 17.3825C35.9747 16.9665 35.7865 16.8278 35.3706 16.8278H19.4001C18.9645 16.8278 18.8259 16.9566 18.8259 17.3924C18.8259 17.7989 18.8325 18.2053 18.8391 18.6114V18.6114V18.6115V18.6115V18.6116C18.8523 19.4226 18.8655 20.2321 18.8259 21.0373C18.7962 21.7306 18.9447 21.9584 19.7071 21.9584H30.3112L30.3481 21.9583C30.6891 21.9577 30.9811 21.9571 30.8855 22.4734C30.632 24.4696 29.8028 26.3488 28.4993 27.8813C25.1131 31.5262 20.8359 32.5364 16.1427 31.6054C12.7922 30.943 9.82829 29.008 7.87328 26.2065C5.91827 23.405 5.12404 19.9549 5.65737 16.5802C6.06272 13.3397 7.65255 10.3639 10.1205 8.22615C12.5884 6.08836 15.7599 4.93982 19.0239 5.00179C22.136 4.97598 25.1465 6.10929 27.4696 8.18117C27.8359 8.58726 28.0735 8.58726 28.4597 8.18117C29.3013 7.27986 30.1825 6.39833 31.0835 5.55644C31.5588 5.17016 31.4696 4.96217 31.0835 4.62541C27.964 1.78843 23.9402 0.149572 19.7269 0ZM121.174 35.5375V18.8187V1.98091C121.174 1.40644 121.015 1.26775 120.451 1.26775C119.233 1.31727 118.015 1.31727 116.807 1.26775C116.174 1.23803 116.005 1.41635 116.005 2.05025V18.6998V35.5375C116.005 36.1912 116.184 36.32 116.807 36.32C117.995 36.2705 119.193 36.2705 120.382 36.32C121.025 36.3497 121.174 36.1714 121.174 35.5375ZM112.431 13.8861H108.421C108.035 13.8861 107.926 14.0247 107.936 14.3813C107.942 14.6101 107.94 14.9328 107.938 15.31L107.938 15.312C107.937 15.522 107.936 15.7489 107.936 15.9858C106.869 14.8294 105.512 13.9798 104.006 13.5252C102.5 13.0706 100.9 13.0276 99.3714 13.4007C96.9186 13.9294 94.696 15.2214 93.0223 17.0914C91.3486 18.9614 90.3097 21.3134 90.0544 23.8104C89.7546 26.4017 90.3153 29.0198 91.6502 31.2608C92.985 33.5018 95.0198 35.2413 97.4407 36.2109C101.154 37.6471 104.649 37.3797 107.629 34.438C107.708 34.3687 107.787 34.339 107.926 34.438C107.95 35.4296 107.917 36.4217 107.827 37.4094C107.755 38.9447 107.08 40.3895 105.949 41.43C104.818 42.4704 103.323 43.0223 101.787 42.9658C100.538 43.0131 99.3019 42.6906 98.2347 42.0387C97.1674 41.3869 96.3161 40.4346 95.7872 39.3011C95.5694 38.895 95.4209 38.7465 94.9456 38.9644C93.8716 39.4646 92.7803 39.8954 91.6797 40.3298L91.4505 40.4204C91.0247 40.5887 90.9851 40.7769 91.1732 41.1632C91.9176 42.6918 92.9812 44.0428 94.2921 45.125C95.5336 46.1404 96.9748 46.8829 98.522 47.3044C100.069 47.7259 101.688 47.8169 103.272 47.5714C107.708 47.0168 110.758 44.6892 112.184 40.3906C112.712 38.6582 112.962 36.853 112.926 35.0422V17.7587V14.4011C112.956 14.0445 112.857 13.8762 112.431 13.8861ZM105.956 30.7238C105.333 31.2783 104.605 31.7019 103.816 31.9694C103.026 32.2369 102.191 32.3428 101.36 32.2809C100.528 32.219 99.7179 31.9905 98.9766 31.609C98.2354 31.2275 97.5783 30.7008 97.0446 30.0602C95.8627 28.641 95.2237 26.8477 95.2419 25.0006C95.26 23.1535 95.934 21.373 97.1436 19.9773C97.9051 19.0756 98.9129 18.4154 100.044 18.0777C101.174 17.7399 102.379 17.7392 103.51 18.0757C106.084 18.7888 107.471 20.6905 108.075 23.1864C108.216 23.8133 108.28 24.4555 108.263 25.098C108.32 26.1542 108.143 27.2099 107.744 28.1895C107.345 29.1691 106.735 30.0481 105.956 30.7634V30.7238ZM45.6474 14.0128C47.111 13.4281 48.6767 13.1426 50.2523 13.1731C51.8309 13.1464 53.3987 13.4372 54.8629 14.028C56.3271 14.6189 57.6577 15.4978 58.776 16.6127C59.8942 17.7277 60.7772 19.0558 61.3727 20.5185C61.9682 21.9812 62.264 23.5487 62.2426 25.1279C62.2427 26.7005 61.9308 28.2574 61.3251 29.7085C60.7194 31.1596 59.8317 32.4761 58.7137 33.5816C57.5957 34.6871 56.2696 35.5597 54.812 36.1488C53.3545 36.7379 51.7945 37.0317 50.2226 37.0134C48.6465 37.0292 47.0831 36.7311 45.6233 36.1365C44.1635 35.5419 42.8365 34.6628 41.7196 33.5502C40.6028 32.4376 39.7184 31.1138 39.118 29.6559C38.5176 28.1981 38.2132 26.6353 38.2225 25.0586C38.2116 23.4821 38.5164 21.9195 39.119 20.4628C39.7216 19.0062 40.6097 17.685 41.731 16.5772C42.8522 15.4694 44.1839 14.5974 45.6474 14.0128ZM48.9294 32.1668C49.8062 32.3483 50.7104 32.3528 51.589 32.1799C54.7375 31.5758 56.995 28.5351 56.9554 24.9695C56.9693 24.5032 56.9227 24.0371 56.8168 23.5828C56.6421 22.3642 56.1306 21.2187 55.3398 20.2754C54.5491 19.3321 53.5106 18.6286 52.3415 18.2442C51.2252 17.8249 50.012 17.7355 48.8463 17.9866C47.6807 18.2377 46.6118 18.8188 45.7671 19.6606C44.8218 20.5473 44.1293 21.6695 43.7604 22.9122C43.3916 24.1549 43.3596 25.4734 43.6681 26.7324C43.8213 27.6149 44.1493 28.4579 44.6327 29.2118C45.1161 29.9658 45.7451 30.6156 46.483 31.123C47.2208 31.6304 48.0526 31.9853 48.9294 32.1668ZM76.1139 13.173C74.5405 13.1438 72.9771 13.4305 71.5164 14.0161C70.0556 14.6017 68.7271 15.4743 67.6092 16.5824C66.4914 17.6905 65.6071 19.0115 65.0084 20.4673C64.4097 21.9232 64.1088 23.4843 64.1237 25.0585C64.1076 26.6353 64.4072 28.1994 65.0049 29.6585C65.6025 31.1177 66.486 32.4424 67.6034 33.5547C68.7208 34.667 70.0496 35.5442 71.5112 36.1348C72.9728 36.7254 74.5377 37.0174 76.1139 36.9935C77.6903 37.0201 79.2561 36.73 80.7184 36.1403C82.1807 35.5505 83.5099 34.6732 84.627 33.5603C85.7442 32.4473 86.6266 31.1214 87.2222 29.661C87.8178 28.2007 88.1143 26.6356 88.0942 25.0585C88.1145 23.4837 87.8177 21.9209 87.2216 20.4632C86.6255 19.0055 85.7421 17.6827 84.6243 16.5737C83.5064 15.4647 82.1768 14.5921 80.7147 14.0078C79.2526 13.4236 77.688 13.1397 76.1139 13.173ZM80.2229 30.8527C79.3284 31.5658 78.2649 32.0354 77.1354 32.216C76.006 32.3965 74.8491 32.2819 73.777 31.8832C72.7049 31.4846 71.754 30.8153 71.0167 29.9406C70.2795 29.0659 69.7809 28.0153 69.5693 26.8909C69.4437 26.2851 69.3872 25.6671 69.4009 25.0486C69.3283 23.4136 69.8422 21.8064 70.8498 20.5169C71.8574 19.2275 73.2924 18.3407 74.8961 18.0164C75.79 17.8529 76.7078 17.873 77.5938 18.0754C78.4797 18.2778 79.3153 18.6582 80.0497 19.1937C80.7841 19.7292 81.4019 20.4084 81.8657 21.1901C82.3295 21.9719 82.6295 22.8398 82.7476 23.7412C83.1238 26.5541 82.4803 29.0303 80.2229 30.8527ZM134.834 26.4869C133.217 27.1553 131.6 27.8243 129.976 28.4754C129.471 28.6735 129.471 28.8518 129.788 29.2777C130.357 30.1928 131.143 30.9534 132.077 31.4921C133.01 32.0309 134.061 32.3312 135.138 32.3664C136.215 32.4017 137.284 32.1708 138.251 31.6942C139.217 31.2177 140.051 30.5102 140.679 29.6343C141.095 29.1093 141.333 29.0895 141.838 29.456C142.828 30.1493 143.818 30.803 144.808 31.4369C145.164 31.6647 145.194 31.843 144.937 32.1599C143.703 33.8462 142.046 35.1773 140.134 36.019C138.222 36.8606 136.122 37.183 134.045 36.9537C131.421 36.7457 128.945 35.6494 127.026 33.8453C125.108 32.0413 123.861 29.6373 123.491 27.0294C123.372 26.5837 123.372 26.128 123.372 25.6724C123.149 23.0621 123.82 20.4536 125.273 18.2744C126.727 16.0951 128.877 14.4745 131.372 13.678C133.723 12.9286 136.262 13.0253 138.55 13.9514C140.837 14.8775 142.729 16.5748 143.897 18.7492C144.385 19.6499 144.818 20.5793 145.194 21.5323C145.392 21.978 145.323 22.1663 144.838 22.3643C142.527 23.289 140.229 24.2457 137.928 25.2035C137.37 25.4359 136.812 25.6683 136.253 25.9003C135.78 26.0955 135.307 26.2912 134.834 26.4869ZM128.585 24.2885C128.545 24.4906 128.501 24.7168 128.986 24.5136L128.996 24.573C132.273 23.2062 135.55 21.8295 138.828 20.4528C139.234 20.2844 139.184 20.0962 139.006 19.809C138.57 19.1183 137.935 18.5761 137.184 18.2539C133.333 16.5107 128.689 19.6009 128.57 24.058C128.624 24.0881 128.605 24.1852 128.585 24.2885Z" fill="#4A7185"/>
</svg>
