<svg width="150" height="20" viewBox="0 0 150 20" fill="none" xmlns="http://www.w3.org/2000/svg">
<path fill-rule="evenodd" clip-rule="evenodd" d="M33.9222 6.95959L33.9233 6.95563L33.9236 6.95465C34.5363 4.85131 35.1372 2.78825 35.7227 0.709718C35.8614 0.224395 36.0198 -0.0331357 36.6138 0.0163871C37.2141 0.0691794 37.8188 0.0516246 38.425 0.0340272C38.7286 0.0252125 39.0326 0.0163871 39.3367 0.0163871H39.3367C39.6337 0.0163871 39.7921 0.0163871 39.6733 0.412533C38.1485 5.5629 36.6435 10.7199 35.1584 15.8834C35.0396 16.2895 34.9406 16.2796 34.6534 16.0122L22.3067 4.22582L18.0195 0.164919C18.1057 -0.023061 18.2351 -0.00661865 18.3541 0.00848788C18.3855 0.0124842 18.4163 0.0163871 18.4453 0.0163871H22.7424C22.9256 0.00456065 23.1092 0.0330181 23.2802 0.0997513C23.4513 0.166485 23.6056 0.269889 23.7325 0.402679L32.9504 9.15827L33.2079 9.4158C33.4476 8.58893 33.6857 7.77126 33.9222 6.95959ZM131.745 19.2609H127.903C127.892 19.2609 127.881 19.2613 127.869 19.2618C127.852 19.2626 127.834 19.2639 127.816 19.2652C127.663 19.2762 127.497 19.2882 127.497 19.0232C127.695 18.3503 127.893 17.6766 128.09 17.0026L128.091 16.9991C128.594 15.2833 129.097 13.5653 129.616 11.8523C129.656 11.7169 129.658 11.5729 129.621 11.4365C129.585 11.3001 129.511 11.1766 129.408 11.0797L121.052 0.521513C120.956 0.40416 120.867 0.281838 120.784 0.155049C120.847 0.0057856 120.96 0.0184956 121.063 0.0301387C121.09 0.0331749 121.116 0.0361386 121.141 0.0361386H125.675C125.828 0.0354905 125.978 0.0755646 126.111 0.152147C126.243 0.22873 126.352 0.339067 126.428 0.471941C128.408 2.97779 130.388 5.48368 132.368 7.99944C132.616 8.31639 132.755 8.33617 133.081 8.09846L143.725 0.333324C143.89 0.168326 144.107 0.0665815 144.339 0.0460528H149.567C149.613 0.216107 149.515 0.26551 149.422 0.311962L149.422 0.311996V0.312006C149.396 0.325061 149.371 0.337885 149.349 0.353092C144.332 3.99797 139.316 7.666 134.299 11.3571C134.049 11.533 133.869 11.7931 133.794 12.09L133.521 13.0298C132.918 15.1057 132.312 17.187 131.745 19.2609ZM58.9218 19.2511H52.7732H39.7829H39.0898C40.8984 13.0442 42.7071 6.83408 44.5157 0.620616C44.6147 0.264052 44.6939 0.0263672 45.1691 0.0263672H64.11H64.5159L64.3706 0.516066C64.1028 1.41754 63.8383 2.30805 63.5951 3.20569C63.5208 3.46996 63.357 3.45879 63.1956 3.44777C63.1634 3.44558 63.1313 3.44339 63.1001 3.44339H58.7436H48.5157C48.4287 3.42792 48.3393 3.43085 48.2535 3.45198C48.1676 3.4731 48.0871 3.512 48.0172 3.56611C47.9473 3.62022 47.8894 3.68834 47.8474 3.76615C47.8053 3.84396 47.7801 3.9297 47.7731 4.01787C47.5097 5.03571 47.1962 6.05358 46.871 7.10967L46.783 7.39536H47.4662H61.0109C61.4763 7.39536 61.5555 7.49438 61.407 7.93018C61.1396 8.71264 60.9119 9.51489 60.7139 10.3172C60.7057 10.4045 60.6794 10.4892 60.6369 10.5658C60.5943 10.6424 60.5362 10.7094 60.4664 10.7625C60.3966 10.8155 60.3166 10.8535 60.2314 10.874C60.1462 10.8946 60.0576 10.8972 59.9713 10.8817H46.3771C45.9117 10.8817 45.7038 10.9808 45.585 11.4562C45.2483 12.7768 44.8721 14.0743 44.4563 15.3487C44.3077 15.8142 44.4563 15.8538 44.8523 15.8538H59.2683C59.7535 15.8538 59.9119 15.9132 59.7337 16.4382C59.6063 16.8723 59.479 17.3177 59.3505 17.7668C59.2094 18.2604 59.0669 18.7584 58.9218 19.2511ZM106.367 19.2907H96.7137C95.6075 19.2828 94.5101 19.0921 93.4661 18.7262C93.0886 18.6235 92.7369 18.4427 92.4338 18.1954C92.1306 17.9481 91.8828 17.6398 91.7064 17.2906C91.5299 16.9414 91.4288 16.5589 91.4096 16.1681C91.3904 15.7772 91.4535 15.3867 91.5948 15.0218C92.5849 11.3571 93.6641 7.70234 94.7731 4.05746C95.0663 3.18913 95.5785 2.41118 96.2601 1.79871C96.9417 1.18624 97.7698 0.759998 98.6642 0.561185C99.8489 0.204213 101.08 0.0272301 102.318 0.0362143H117.169C117.763 0.0362143 117.793 0.194711 117.625 0.680035C117.362 1.40811 117.147 2.15253 116.981 2.90856C116.872 3.4236 116.615 3.51272 116.15 3.51272H101.971C101.235 3.49563 100.501 3.58915 99.7929 3.79008C99.5544 3.85144 99.3367 3.97568 99.1625 4.14989C98.9884 4.32411 98.8642 4.54192 98.8028 4.78054C98.4728 5.89312 98.1494 7.00681 97.8259 8.1205C97.179 10.3479 96.5322 12.5754 95.8325 14.794C95.6741 15.319 95.8919 15.517 96.3077 15.6458C96.9247 15.8056 97.5621 15.8724 98.1988 15.8439H107.031C107.205 15.854 107.381 15.854 107.555 15.8439C109.021 15.7151 109.199 15.4379 109.744 14.0809C110.254 12.6969 110.254 11.1763 109.744 9.79224C109.669 9.54995 109.614 9.30378 109.556 9.04637L109.556 9.04614C109.522 8.89324 109.487 8.73637 109.447 8.574H115.575L114.268 13.1003C114.226 13.2413 114.182 13.3814 114.137 13.5214C114.034 13.8436 113.931 14.1655 113.862 14.4969C113.634 15.6359 113.062 16.6771 112.222 17.4797C111.383 18.2823 110.317 18.8073 109.169 18.9836C108.247 19.1754 107.309 19.2782 106.367 19.2907ZM63.4756 19.2708H67.6539C67.7104 19.2113 67.7633 19.1485 67.8123 19.0826C68.0995 18.092 68.387 17.1014 68.6746 16.1107L68.6747 16.1105L68.6749 16.1098L68.6752 16.1088L68.6756 16.1074C69.8253 12.1468 70.9751 8.1863 72.0995 4.22577C72.2381 3.6216 72.4856 3.48293 73.0896 3.48293H84.0699C84.3785 3.48472 84.6864 3.51118 84.9907 3.56212C85.7234 3.70079 85.9313 4.01775 85.7234 4.75068L84.8026 7.8013C84.7098 8.39523 84.3861 8.92842 83.9021 9.28463C83.418 9.64084 82.8128 9.79119 82.2184 9.70296H78.3867C77.9609 9.69306 77.852 9.7723 77.9609 10.2081C78.0799 10.7312 78.1924 11.2517 78.3059 11.7773C78.5041 12.6945 78.7056 13.6271 78.951 14.6156C79.0862 15.1599 79.2068 15.7067 79.3273 16.2528C79.551 17.2671 79.7743 18.2794 80.0897 19.2708H84.5056C84.3784 18.7146 84.253 18.1574 84.1275 17.5999C83.8329 16.2912 83.5378 14.9805 83.2184 13.6747C83.1095 13.2191 83.1689 13.0705 83.6739 12.9913C84.7954 12.868 85.8594 12.4308 86.7438 11.7301C87.6282 11.0293 88.2972 10.0933 88.6739 9.02946C89.2098 7.55958 89.6659 6.06184 90.0403 4.54273C90.5849 2.39344 89.674 0.927563 87.5254 0.33329C86.7956 0.140271 86.0425 0.0502393 85.2878 0.0658476H69.6638C69.5686 0.0489844 69.4709 0.0516857 69.3768 0.0737669C69.2826 0.0958481 69.194 0.136866 69.1162 0.194309C69.0384 0.251753 68.9731 0.324401 68.9242 0.407889C68.8754 0.491376 68.844 0.583936 68.8321 0.679925C68.2142 2.82013 67.5878 4.96679 66.9597 7.11888C66.2392 9.58803 65.5165 12.0643 64.8023 14.5463C64.6784 14.9721 64.5494 15.3972 64.4202 15.8227L64.4199 15.8236C64.0743 16.9617 63.7278 18.1032 63.4756 19.2708ZM9.32715 19.2708H13.1391L15.7827 9.78227L25.8323 19.251H31.169L31.0205 19.0827L18.8718 7.50423L13.9609 2.88867C12.4064 8.3758 10.8618 13.8332 9.32715 19.2708ZM0 19.2708H4.18817C4.28719 18.9835 4.3862 18.6963 4.46541 18.3793C4.89864 16.8935 5.33125 15.4076 5.76386 13.9217C7.06147 9.46486 8.35908 5.008 9.6734 0.551135C9.82191 0.0658112 9.7031 0.0163102 9.25755 0.0163102C8.92751 0.0163102 8.59748 0.0229132 8.26744 0.0295163C7.60736 0.0427224 6.94729 0.0559284 6.28721 0.0163102C5.73275 -0.0134035 5.53473 0.18469 5.38621 0.699727C5.07865 1.74441 4.77056 2.78856 4.46256 3.83242C3.44188 7.29159 2.42214 10.7476 1.42576 14.2095C1.23924 14.9304 1.02187 15.6477 0.803945 16.3668C0.512872 17.3272 0.220819 18.2909 0 19.2708Z" fill="#4A7185"/>
</svg>
