<svg width="81" height="53" viewBox="0 0 81 53" fill="none" xmlns="http://www.w3.org/2000/svg">
<path fill-rule="evenodd" clip-rule="evenodd" d="M68.08 31.1057V35.2755L68.1494 35.3349L68.4068 35.2259C70.7371 34.3048 72.846 32.9006 74.595 31.1057C78.6347 26.9458 80.6149 22.0727 79.9218 16.2488C79.5084 12.6764 77.7914 9.38223 75.1 6.99796C72.8542 4.99279 70.2324 3.45418 67.3869 2.47157C62.8692 0.890796 58.1231 0.0610517 53.3373 0.0152624C49.4299 -0.0695119 45.5229 0.199 41.6639 0.817529C36.7743 1.5882 31.9791 2.86958 27.3567 4.64067C24.019 5.90823 20.7988 7.46592 17.7329 9.29583C17.7052 9.31359 17.676 9.32939 17.647 9.3451L17.6469 9.34516L17.6469 9.34517C17.5302 9.40827 17.416 9.47004 17.416 9.65238V10.9598C17.5437 10.9649 17.6694 10.9265 17.7724 10.8508C21.0722 9.19287 24.495 7.79218 28.0102 6.66124C33.5394 4.82224 39.2591 3.61608 45.0599 3.06588C48.0217 2.7858 51 2.7229 53.9709 2.87769C56.8765 3.00707 59.7604 3.44196 62.575 4.17519C65.6134 4.90393 68.4684 6.25273 70.9612 8.13701C72.5187 9.30633 73.7862 10.8187 74.6653 12.5569C75.5444 14.2951 76.0116 16.2125 76.0307 18.1604C76.0489 21.0843 75.0867 23.93 73.298 26.2425C71.9785 28.0472 70.3206 29.5779 68.4167 30.7491C68.3855 30.7691 68.3513 30.7862 68.3171 30.8033C68.199 30.8621 68.08 30.9214 68.08 31.1057ZM0 30.5312C0.130497 30.1759 0.197537 29.8004 0.198035 29.4219C0.713375 26.1709 1.99269 23.0887 3.93078 20.4286C5.24862 18.5773 6.77702 16.8855 8.48527 15.3872C8.5114 15.3872 8.53331 15.3661 8.55896 15.3413C8.60134 15.3005 8.65392 15.2498 8.75262 15.2683V17.1601C8.75262 17.3041 8.66858 17.3964 8.58407 17.4893C8.56398 17.5114 8.54387 17.5335 8.52485 17.5563C6.13456 20.2488 4.45643 23.4972 3.64361 27.0052C2.72715 30.4514 3.04597 34.1099 4.54464 37.3456C5.81342 39.8857 7.81813 41.9843 10.2972 43.3676C12.9546 44.8738 15.8466 45.9218 18.8518 46.4677C21.9426 47.0692 25.0799 47.4006 28.2281 47.4581C31.7619 47.5407 35.2973 47.3952 38.8124 47.0223C44.075 46.4453 49.2662 45.3404 54.3077 43.7241C58.3128 42.5255 62.1819 40.9122 65.8524 38.9105C66.5454 38.5242 66.5455 38.5242 66.5455 39.3364V44.1896C66.5589 44.3114 66.5324 44.4344 66.4699 44.5398C66.4074 44.6452 66.3122 44.7274 66.1989 44.774C62.3409 46.7652 58.286 48.3486 54.0997 49.4985C49.9323 50.7053 45.6791 51.5927 41.3768 52.1529C38.9015 52.4797 36.4262 52.6778 33.9212 52.7769H33.9211C33.8221 52.7769 33.7034 52.7769 33.6441 52.8561H33.3965L33.3682 52.8525C33.3779 52.8596 33.3875 52.8674 33.3969 52.8759H32.7627V52.8511L32.7517 52.8524L32.7232 52.8561H32.7141L32.7141 52.8562L31.7231 52.876V52.8561H30.5548C30.5057 52.8522 30.4564 52.8489 30.4072 52.846H29.5639C29.5146 52.8489 29.4654 52.8522 29.4163 52.8561H28.535C28.0929 52.7883 27.6452 52.7651 27.1984 52.7867C25.3267 52.7342 23.4608 52.5522 21.6142 52.242C18.8148 51.8246 16.067 51.1142 13.416 50.1224C10.6625 49.1138 8.10593 47.6323 5.86145 45.7446C2.63024 43.0318 0.56392 39.1813 0.0891367 34.9883C0.0795284 34.6205 0.0497538 34.2535 0 33.8889V33.255L0.00500618 33.2366L0 33.2451V32.6112V32.6013V31.9773L0.00505776 31.9588L0 31.9673V31.3335V31.3235V31.0859L8.75816e-05 31.0857L0 31.0858V30.6105V30.6104V30.5312ZM19.4756 27.1933V19.5371C19.4756 19.1904 19.5449 19.0616 19.9311 19.0715H28.0599C28.6574 19.0618 29.2525 19.1488 29.8223 19.3291C30.6306 19.5824 31.345 20.0711 31.8741 20.7327C32.4032 21.3943 32.723 22.1988 32.7926 23.0433C32.8505 23.4765 32.8737 23.9137 32.8619 24.3507V34.8693C32.8619 35.216 32.7926 35.3249 32.4263 35.315H29.1193C28.8025 35.315 28.7233 35.2259 28.7233 34.9089V24.1922C28.7482 23.9551 28.7482 23.7161 28.7233 23.4791C28.6676 23.159 28.4948 22.8711 28.2385 22.6715C27.9823 22.472 27.6609 22.375 27.3371 22.3995H23.8717C23.6836 22.3995 23.6539 22.4886 23.6539 22.6471V23.3305V34.9188C23.6539 35.2457 23.5846 35.3546 23.248 35.3447H19.9014C19.5945 35.3447 19.5152 35.2556 19.5152 34.9584C19.4756 32.3733 19.4756 29.7784 19.4756 27.1933ZM35.9015 15.0701V23.0729C35.9015 23.1483 35.9012 23.2236 35.9009 23.2991V23.2995V23.3V23.3C35.8996 23.6807 35.8982 24.0648 35.9312 24.4695C35.9515 25.4056 35.9419 26.34 35.9323 27.2741C35.9185 28.6231 35.9047 29.9716 35.9807 31.3234C36.0359 32.2394 36.3874 33.1125 36.9821 33.8111C37.5769 34.5096 38.3826 34.9958 39.2777 35.1961C40.5004 35.3726 41.7377 35.4257 42.9709 35.3546C43.1491 35.3645 43.1491 35.2556 43.1491 35.1268V32.1554C43.1491 31.9673 43.0798 31.9078 42.8917 31.9078H41.6144C40.4758 31.9078 40.0401 31.4819 40.0401 30.3528V22.7857C40.0401 22.4192 40.1392 22.4192 40.4263 22.4192H42.8521C43.0699 22.4192 43.159 22.3796 43.159 22.1419V19.3885C43.159 19.1408 43.0699 19.0814 42.8323 19.0814H40.5253C40.1589 19.1012 40.0401 19.022 40.0401 18.6159V15.0304C40.0401 14.7432 39.9807 14.654 39.6639 14.654H36.3173C35.9906 14.6441 35.9015 14.7333 35.9015 15.0701ZM65.2976 23.7564V34.592C65.2976 34.6753 65.2996 34.7472 65.3012 34.8091C65.3058 34.9796 65.3084 35.0739 65.2626 35.1173C65.2062 35.1709 65.0763 35.1472 64.786 35.0942L64.6937 35.0774C64.209 35.0032 63.7384 34.8563 63.2976 34.6416C62.7001 34.3593 62.1892 33.9219 61.8183 33.3749C61.4473 32.8278 61.2299 32.1913 61.1886 31.5315C61.1689 31.1719 61.1689 30.8115 61.1886 30.4519V12.802C61.1886 12.4454 61.2679 12.3266 61.6441 12.3365H64.9511C65.2778 12.3365 65.3669 12.4256 65.3669 12.7624C65.3207 16.4271 65.2976 20.0917 65.2976 23.7564ZM15.8416 35.0477V27.2627C15.8416 26.4479 15.8368 25.6341 15.832 24.8213L15.832 24.8208V24.8208V24.8208C15.8213 23.0351 15.8107 21.2541 15.8516 19.4778C15.8516 19.1905 15.7921 19.0915 15.4852 19.0915H12.0594C11.7723 19.0816 11.6634 19.1509 11.6634 19.4678V31.1255C11.6104 31.6531 11.6638 32.186 11.8205 32.6926C11.9772 33.1992 12.234 33.6692 12.5757 34.0747C12.9173 34.4802 13.3369 34.813 13.8094 35.0533C14.282 35.2935 14.798 35.4365 15.3268 35.4736C15.8416 35.5627 15.8416 35.5528 15.8416 35.0478V35.0477ZM13.7527 12.9111H15.5448C15.7527 12.9111 15.8121 12.9804 15.8121 13.1884V16.5758C15.8121 16.7739 15.7527 16.8432 15.5448 16.8432H11.921C11.723 16.8432 11.6636 16.7838 11.6636 16.5956V13.1686C11.6636 12.9309 11.7725 12.9111 11.9606 12.9111H13.7527ZM56.7432 20.993C57.6658 22.1006 58.2775 23.4338 58.5155 24.8558C58.682 25.9601 58.745 27.0776 58.7036 28.1936C58.7135 28.4808 58.5749 28.4808 58.367 28.4808H58.367H48.6836C48.3668 28.4808 48.2777 28.5304 48.2777 28.8869C48.3088 29.7758 48.689 30.6166 49.336 31.2266C49.983 31.8367 50.8444 32.1669 51.7332 32.1455C52.4221 32.2065 53.116 32.1157 53.766 31.8796C54.416 31.6434 55.0064 31.2677 55.4956 30.7787C55.654 30.6103 55.7333 30.64 55.8719 30.7787L58.0402 32.8289C58.1986 32.9775 58.1887 33.0568 58.0402 33.2053C56.6498 34.6018 54.7983 35.4434 52.8322 35.5725C51.679 35.6714 50.5174 35.5742 49.3966 35.2853C48.3225 35.0338 47.3322 34.5072 46.5233 33.757C45.7143 33.0067 45.1145 32.0589 44.7827 31.0065C43.8178 28.3952 43.9066 25.5109 45.0302 22.964C45.5175 21.8334 46.3027 20.8566 47.302 20.1379C48.3013 19.4191 49.477 18.9855 50.7035 18.8833C51.8067 18.6817 52.9433 18.7701 54.002 19.1399C55.0607 19.5097 56.0052 20.1483 56.7432 20.993ZM51.4263 25.6877H54.2976C54.5452 25.6877 54.6243 25.6184 54.5847 25.3807C54.5264 24.8634 54.3964 24.3567 54.1986 23.8752C54.0446 23.4986 53.8053 23.163 53.4994 22.8949C53.1936 22.6267 52.8296 22.4334 52.4362 22.3301C51.9557 22.1891 51.4491 22.1616 50.9562 22.2496C50.4633 22.3376 49.9975 22.5388 49.5955 22.8373C49.1935 23.1359 48.8661 23.5236 48.6392 23.9701C48.4122 24.4166 48.2919 24.9096 48.2876 25.4104C48.2678 25.6877 48.3371 25.6877 48.5549 25.6877H48.555H51.4263Z" fill="#4A7185"/>
</svg>
