<svg width="170" height="35" viewBox="0 0 170 35" fill="none" xmlns="http://www.w3.org/2000/svg">
<path fill-rule="evenodd" clip-rule="evenodd" d="M31.0718 1.76389C30.6285 1.58022 30.1535 1.48568 29.6737 1.48568H5.13868C4.6589 1.48568 4.1838 1.58022 3.74054 1.76389C3.29727 1.94756 2.89452 2.2168 2.55526 2.55618C2.216 2.89556 1.94688 3.29842 1.76327 3.74184C1.57967 4.18525 1.48517 4.66051 1.48517 5.14047V29.7335C1.48778 30.702 1.87353 31.6301 2.55813 32.3149C3.24273 32.9998 4.17052 33.3857 5.13868 33.3883H29.6737C30.1573 33.387 30.6358 33.2899 31.0818 33.1027C31.5277 32.9155 31.9321 32.6418 32.2718 32.2974C32.6114 31.953 32.8796 31.5448 33.0607 31.0963C33.2418 30.6477 33.3324 30.1677 33.3272 29.684V5.14047C33.3272 4.66051 33.2327 4.18525 33.0491 3.74184C32.8655 3.29842 32.5963 2.89556 32.2571 2.55618C31.9178 2.2168 31.5151 1.94756 31.0718 1.76389ZM5.13868 0H29.6737C30.3485 0 31.0167 0.132977 31.6401 0.39131C32.2636 0.649642 32.8301 1.0283 33.3073 1.50563C33.7844 1.98297 34.1629 2.54967 34.4212 3.17334C34.6794 3.79701 34.8123 4.46541 34.8123 5.14047V29.684C34.8097 31.0465 34.2675 32.3525 33.3044 33.3159C32.3412 34.2794 31.0357 34.8218 29.6737 34.8245H5.13868C3.77582 34.8245 2.46877 34.2828 1.50508 33.3188C0.541391 32.3548 0 31.0473 0 29.684V5.14047C0 4.46541 0.132931 3.79701 0.391174 3.17334C0.649417 2.54967 1.02791 1.98297 1.50508 1.50563C1.98225 1.0283 2.54875 0.649642 3.17221 0.39131C3.79566 0.132977 4.46386 0 5.13868 0ZM55.7433 23.3549L57.7928 21.8098L64.6246 27.9012H75.2188L63.7335 17.6103L74.6247 9.51831H64.6543L55.7433 16.194V9.51831H46.7432V27.9012H55.7433V23.3549ZM103.932 9.51831V27.9012H96.4074L86.1102 19.5219V27.8714H77.1992V9.51831H84.7241L95.0509 17.8678V9.51831H103.932ZM110.051 23.6619C111.561 25.2395 113.439 26.4171 115.516 27.0889C118.067 27.948 120.746 28.3634 123.437 28.3171C126.128 28.3636 128.808 27.9482 131.358 27.0889C133.436 26.4171 135.314 25.2395 136.824 23.6619C138.096 22.3273 138.805 20.5537 138.804 18.7096C138.804 16.8658 138.095 15.0926 136.824 13.7573C135.316 12.1795 133.437 11.0046 131.358 10.3403C128.808 9.47745 126.129 9.05868 123.437 9.10219C120.746 9.05907 118.067 9.47783 115.516 10.3403C113.438 11.0046 111.559 12.1795 110.051 13.7573C108.784 15.0953 108.076 16.8667 108.071 18.7096C108.074 20.5529 108.782 22.325 110.051 23.6619ZM128.675 21.1363C128.096 21.8551 127.338 22.4086 126.477 22.7408C125.497 23.1287 124.451 23.3206 123.398 23.3054C122.341 23.3206 121.292 23.1288 120.309 22.7408C119.451 22.4083 118.696 21.8547 118.12 21.1363C117.577 20.4459 117.29 19.5882 117.309 18.7096C117.29 17.8311 117.577 16.9734 118.12 16.283C118.696 15.5645 119.451 15.0109 120.309 14.6785C121.292 14.2905 122.341 14.0987 123.398 14.1139C124.451 14.0987 125.497 14.2905 126.477 14.6785C127.338 15.0107 128.096 15.5641 128.675 16.283C129.214 16.9757 129.501 17.8318 129.487 18.7096C129.501 19.5874 129.214 20.4435 128.675 21.1363ZM159.042 27.9012L154.349 22.9489L149.775 27.9012H139.339L149.151 18.6305L139.685 9.51831H149.973L154.587 14.1437L159.082 9.51831H168.983L159.547 18.4324L169.557 27.9408L159.042 27.9012ZM3.86133 30.9121H30.8617L20.4952 17.4023L30.8617 3.90234H3.86133V30.9121Z" fill="#4A7185"/>
</svg>
