<svg width="107" height="39" viewBox="0 0 107 39" fill="none" xmlns="http://www.w3.org/2000/svg">
<path fill-rule="evenodd" clip-rule="evenodd" d="M15.5513 0.0990214V0.0891072C15.5515 0.0924044 15.5515 0.0957241 15.5513 0.0990214ZM15.5513 0.0891072C15.5591 0.075556 15.5631 0.0602011 15.5631 0.0445536C15.5631 0.0289061 15.5591 0.0135511 15.5513 0V0.0891072ZM0.0262893 27.7822C-0.0131445 27.7096 -6.14669e-08 27.6281 0.0131443 27.5467C0.0197168 27.506 0.0262893 27.4653 0.0262893 27.4257V27.2276V27.0426L0.0258679 27.0395C0.0109085 26.9046 0.0109085 26.7684 0.0258679 26.6334C0.0348753 26.6131 0.0395254 26.5913 0.0395254 26.5691C0.0395254 26.5469 0.0348753 26.525 0.0258679 26.5047C0.04188 25.3002 0.208185 24.1023 0.520924 22.939C0.884852 21.5315 1.36501 20.1567 1.95654 18.8287C2.36248 17.8877 2.79822 16.9666 3.28338 16.0653C3.76853 15.1639 4.38236 14.0843 4.97643 13.0939C6.14476 11.2021 7.43185 9.40939 8.7586 7.63647C9.78172 6.28285 10.8478 4.96224 11.9568 3.67465C12.6201 2.92191 13.3132 2.1989 14.0062 1.47587C14.3324 1.14215 14.6642 0.819526 14.9973 0.49554L14.9973 0.495514C15.1091 0.386807 15.221 0.277946 15.333 0.16846C15.404 0.140736 15.4769 0.117571 15.5509 0.0991211V0.148632L14.7191 1.87201C14.1349 3.08037 13.6201 4.30857 13.1548 5.55654C12.6164 7.00282 12.2089 8.49447 11.9369 10.0136C11.8378 10.5608 11.7683 11.1129 11.7289 11.6676C11.6943 12.2019 11.6943 12.7379 11.7289 13.2722C11.766 14.549 12.0695 15.8041 12.6201 16.9567C12.9891 17.6799 13.4592 18.3469 14.0162 18.9376C15.038 19.997 16.2921 20.8041 17.6795 21.2949C18.5999 21.6402 19.5566 21.8794 20.5311 22.008C20.9092 22.0553 21.3124 22.09 21.6858 22.1222L21.6859 22.1222C21.7818 22.1305 21.8758 22.1386 21.9668 22.1467C22.5242 22.1763 23.0826 22.1763 23.64 22.1467C24.2101 22.1238 24.7785 22.0709 25.343 21.9882C25.9569 21.909 26.5708 21.8099 27.1747 21.7109C27.7787 21.6118 28.5312 21.4236 29.155 21.2652C30.7284 20.8926 32.2844 20.4616 33.8407 20.0305L33.8414 20.0303C34.3121 19.8999 34.7828 19.7696 35.2541 19.6408L41.4423 17.9669L47.383 16.3426L52.6504 14.9064L58.591 13.2821L64.3633 11.6974L72.2347 9.54805L77.6704 8.06236L83.7398 6.41823L89.6805 4.79387L94.9083 3.36761L100.285 1.89184L106.027 0.326907H106.146L104.71 0.970727L100.75 2.73377L96.7202 4.51657L92.1459 6.49749L88.0469 8.30012L84.0369 10.0829L79.423 12.1134L75.3437 13.916L70.9773 15.8969L66.9476 17.6797L62.3534 19.6606L58.3039 21.4533L53.9177 23.4343L49.9572 25.2072L45.3334 27.1881L41.2641 28.9907L36.8778 30.9716L32.9174 32.7346C32.3524 32.9805 31.7916 33.2346 31.2309 33.4886C30.0523 34.0226 28.8743 34.5563 27.6599 35.0127C26.5707 35.4386 25.4717 35.8447 24.3529 36.2112C22.6872 36.7714 20.9915 37.2376 19.2736 37.6077C18.4122 37.7859 17.5509 37.9444 16.6697 38.0633C16.1945 38.1326 15.6795 38.192 15.2439 38.2217L13.9666 38.3109H11.9864L11.1745 38.2515C9.39576 38.129 7.65424 37.6826 6.0358 36.9342C5.08327 36.4937 4.20228 35.9127 3.42201 35.2108C2.5483 34.4287 1.82657 33.4919 1.29324 32.4474C0.666775 31.2326 0.267411 29.9133 0.114944 28.5549C0.0787577 28.2955 0.0508654 28.0333 0.0312155 27.7683L0.0262893 27.7822ZM12.0068 38.4396C12.0068 38.4396 12.1752 38.3703 12.2643 38.3604H13.7494C13.8386 38.3604 13.9277 38.3604 13.997 38.4396H12.0068ZM106.334 0.404664C106.294 0.393793 106.255 0.383422 106.255 0.416053C106.315 0.425958 106.393 0.416053 106.393 0.416053C106.377 0.416053 106.355 0.410292 106.334 0.404664Z" fill="#4A7185"/>
</svg>
