<svg width="168" height="52" viewBox="0 0 168 52" fill="none" xmlns="http://www.w3.org/2000/svg">
<path fill-rule="evenodd" clip-rule="evenodd" d="M13.1926 5.27908L13.1388 5.46723C12.5993 5.99944 12.0598 6.53227 11.5202 7.06526L11.5202 7.06529L11.52 7.06544L11.5194 7.06601L11.5183 7.06712L11.518 7.06741C9.90922 8.6564 8.29901 10.2468 6.68326 11.826C6.44559 12.0489 6.20795 12.255 5.9703 12.4612C5.8912 12.5298 5.81209 12.5984 5.73299 12.6677L5.73297 12.6679C5.57891 12.9514 5.50255 13.2694 5.50988 13.5898C5.57394 13.7311 5.57869 13.9081 5.58311 14.073L5.58425 14.1141V22.7509C5.59156 22.8852 5.57143 23.0195 5.52521 23.1457C5.53522 23.3476 5.58072 23.5467 5.66003 23.7336C5.76117 23.9719 5.91466 24.1844 6.10916 24.3552C7.83496 26.0579 9.5481 27.7732 11.2587 29.486C11.6875 29.9154 12.1162 30.3446 12.5449 30.7734C12.6797 30.9545 12.8542 31.1023 13.0551 31.2053C13.2559 31.3083 13.4777 31.3639 13.7034 31.3677H23.3173C23.6348 31.3897 23.9517 31.3173 24.2281 31.1597L24.228 31.1597L30.3667 24.9198C30.6109 24.6689 30.8463 24.4092 31.0817 24.1495L31.0817 24.1495L31.0817 24.1495L31.0817 24.1495L31.0818 24.1495L31.0818 24.1495L31.0818 24.1494L31.0818 24.1494C31.1995 24.0196 31.3172 23.8897 31.436 23.761H31.634C31.6103 24.7545 31.615 25.7574 31.6198 26.7661V26.7662V26.7663V26.7663V26.7663V26.7663V26.7664V26.7664C31.6269 28.281 31.6341 29.8084 31.5451 31.3358L31.5551 31.3478C30.4612 31.5476 29.3449 31.5943 28.2382 31.4865H24.6639C24.281 31.4493 23.8969 31.5436 23.5748 31.754L23.5572 31.7552L23.5648 31.764C23.1788 32.1576 22.7927 32.5506 22.4068 32.9434L22.4064 32.9437C21.2386 34.1324 20.0722 35.3197 18.9114 36.5182C18.6737 36.7658 18.4856 36.8252 18.2282 36.5182C17.6081 35.8672 16.9644 35.243 16.3215 34.6196C15.3015 33.6304 14.2838 32.6435 13.3667 31.556H13.3769L13.3766 31.5559C12.4136 31.5559 11.4506 31.5418 10.4876 31.5278C9.16347 31.5085 7.8393 31.4892 6.51514 31.5064C5.64384 31.5064 5.36659 31.2488 5.37649 30.3772V23.5134V23.4137C5.34909 23.4489 5.31928 23.4822 5.28723 23.5135L0 18.4028L0.00991079 18.1948C0.942566 17.4315 1.77891 16.5718 2.61638 15.7109C3.14806 15.1644 3.6802 14.6174 4.23771 14.0943C4.39749 13.9402 4.56384 13.7926 4.72918 13.646C4.85073 13.5382 4.97174 13.4309 5.08919 13.3218C5.11913 13.3248 5.14722 13.3291 5.17358 13.3346L5.15869 13.3216C5.39194 12.9684 5.49032 12.543 5.43589 12.1231V6.33884C5.43589 6.25949 5.42772 6.17721 5.41946 6.094L5.41946 6.09399C5.39494 5.84706 5.3696 5.5919 5.55451 5.38036V5.34838L13.1875 5.2594L18.2775 0H18.2775C18.4161 0 18.5943 0 18.6735 0.0594249C20.1667 1.56196 21.652 3.07234 23.2419 4.68918L23.8221 5.27908H13.1926ZM31.4063 12.9056C29.0201 10.3502 26.535 7.87412 23.9805 5.48712C24.207 5.19253 24.5026 5.22629 24.7883 5.25891C24.8772 5.26906 24.9652 5.2791 25.0498 5.2791H30.8518C31.2479 5.2791 31.6241 5.2791 31.6241 5.83376V12.5788C31.6113 12.6493 31.5529 12.7198 31.4945 12.7903C31.4626 12.8287 31.4307 12.8672 31.4063 12.9056ZM47.0898 50.8104V51.0382H50.6444V43.8376C50.6305 43.8417 50.6171 43.846 50.6039 43.8503C50.6139 43.8406 50.6244 43.8309 50.6354 43.8214C50.6446 43.8135 50.6541 43.8057 50.6641 43.798H52.0403C54.8916 43.9156 57.7478 43.7797 60.5751 43.3919C63.9217 42.7877 65.9118 40.9653 66.2583 37.8949C66.506 35.6537 66.5127 33.3925 66.2781 31.1499C65.7831 26.4254 62.7632 24.395 58.2681 24.078C56.1806 23.9267 54.0931 23.9381 52.0056 23.9496C50.6772 23.9568 49.3488 23.9641 48.0205 23.9294C47.3769 23.9294 47.0304 24.0285 47.0799 24.7812V50.8104L47.0898 50.8104ZM106.457 26.762L101.803 39.4201C101.706 39.6842 101.605 39.9482 101.505 40.2123C101.228 40.9387 100.952 41.6651 100.734 42.3914C100.536 43.065 100.16 43.2135 99.5064 43.2135C96.7638 43.2135 96.7638 43.2135 95.744 40.6681C95.0789 39.0063 94.4157 37.3435 93.7521 35.6795L93.7508 35.6762C92.3105 32.0649 90.8679 28.4475 89.3973 24.8208C89.0409 23.9591 89.2389 23.8303 90.0706 23.8303C92.4766 23.8303 92.4766 23.8303 93.3568 25.9828L93.3677 26.0093L98.5064 38.3702C98.8557 38.0146 99.0991 37.5688 99.2094 37.0826C100.902 33.0118 102.596 28.941 104.229 24.8505C104.324 24.5207 104.537 24.2375 104.828 24.0548C105.118 23.8722 105.465 23.8028 105.804 23.86C108.289 23.86 108.289 23.86 109.208 26.1404L109.219 26.1678C110.83 30.1296 112.457 34.0716 114.101 37.9938C114.187 38.1788 114.286 38.3575 114.398 38.5286L116.804 32.7147C117.025 32.1817 117.247 31.6491 117.469 31.1167L117.47 31.115L117.47 31.1145L117.47 31.1143L117.47 31.1141L117.47 31.114L117.47 31.1138L117.47 31.1137L117.471 31.1135L117.471 31.1133L117.471 31.1132L117.471 31.113L117.471 31.1129L117.471 31.1127L117.471 31.1125L117.471 31.1124C118.322 29.0735 119.172 27.0357 119.972 24.9792C120.057 24.6094 120.282 24.2867 120.599 24.0782C120.916 23.8698 121.302 23.7917 121.675 23.86L121.885 23.8663C122.883 23.8961 123.385 23.9111 123.545 24.1529C123.708 24.3987 123.516 24.8788 123.13 25.8469L123.101 25.9202C122.342 27.8201 121.579 29.7249 120.816 31.6303L120.816 31.631L120.814 31.6354C119.398 35.1716 117.982 38.7099 116.586 42.2231C116.526 42.5305 116.351 42.8035 116.098 42.9873C115.844 43.1711 115.53 43.252 115.219 43.2135C112.586 43.2135 112.576 43.2135 111.655 40.7374C110.308 37.1187 108.98 33.5129 107.645 29.8886L107.643 29.8832L107.641 29.8794L107.64 29.8772L107.64 29.8765C107.329 29.031 107.017 28.1845 106.705 27.3365C106.697 27.3185 106.688 27.2992 106.677 27.277L106.677 27.2768L106.677 27.2766C106.637 27.1887 106.575 27.0539 106.457 26.762ZM125.497 24.9199V31.2688H125.477V37.1124C125.403 38.453 125.795 39.778 126.588 40.8616C127.38 41.9452 128.524 42.7204 129.824 43.0551C132.59 43.9466 135.539 44.1137 138.388 43.5405C143.2 42.7085 144.765 40.7276 144.765 35.7753V26.4551C144.765 25.2134 144.765 24.587 144.451 24.271C144.133 23.9493 143.489 23.9493 142.19 23.9493H142.19C141.408 23.9493 141.2 24.1573 141.2 24.9397V36.6964C141.269 37.4459 141.071 38.1957 140.639 38.8124C140.208 39.429 139.571 39.8726 138.844 40.064C136.658 40.8069 134.302 40.8862 132.071 40.2918C129.774 39.7173 128.913 38.5981 128.913 36.221V26.366C128.913 23.9295 128.913 23.9294 126.487 23.9294C125.754 23.9294 125.497 24.0978 125.497 24.9199ZM147.982 33.5763V25.0089C147.982 24.2165 148.121 23.8896 148.973 23.9193C150.418 23.9692 151.866 23.9552 153.314 23.9412C155.603 23.919 157.894 23.8968 160.181 24.1273C161.805 24.2396 163.375 24.7609 164.745 25.6427C165.449 26.147 166.035 26.7992 166.461 27.5537C166.887 28.3083 167.143 29.1468 167.21 30.0107C167.27 30.5059 167.092 30.7337 166.567 30.704C166.109 30.6644 165.648 30.6644 165.191 30.704C164.998 30.7672 164.794 30.7864 164.593 30.7604C164.392 30.7343 164.2 30.6637 164.03 30.5535C163.86 30.4433 163.717 30.2964 163.611 30.1236C163.505 29.9509 163.439 29.7566 163.418 29.555C163.002 28.1189 161.636 27.5742 160.289 27.3662C158.396 27.0229 156.487 27.0555 154.581 27.0881H154.581H154.581H154.581H154.581H154.581H154.581H154.58H154.58H154.58H154.58H154.58C153.736 27.1025 152.893 27.117 152.052 27.0987C151.457 27.0987 151.479 27.4677 151.5 27.8152C151.503 27.8783 151.507 27.9407 151.507 28V34.7747V42.2923C151.507 43.0352 151.27 43.2828 150.517 43.2828C147.913 43.2828 147.913 43.2827 147.913 40.7076L147.982 33.5763ZM31.624 23.7116V13.2722C31.8542 13.157 31.9752 13.2946 32.089 13.424C32.1122 13.4504 32.1352 13.4765 32.1587 13.5C32.7351 14.0726 33.3098 14.6468 33.8849 15.2213L33.8858 15.2222L33.8882 15.2246L33.8891 15.2254L33.8905 15.2268C34.7559 16.0914 35.6221 16.9567 36.4954 17.8184C36.832 18.1551 37.0499 18.4027 36.5944 18.8088C34.9112 20.4134 33.2676 22.0476 31.6438 23.6719L31.624 23.7116ZM18.9015 25.6132C18.5748 26.049 18.5054 25.8609 18.5054 25.4548V20.968C18.5054 18.3433 18.5054 18.3433 15.8915 18.3433H11.1885L18.6242 10.8752V14.0249C18.6434 14.4662 18.5893 14.9509 18.5356 15.4323C18.4229 16.4418 18.3118 17.4368 18.8817 17.9867C19.1781 18.2728 19.5914 18.3807 20.0607 18.4026H20.4714C20.7939 18.39 21.1328 18.3521 21.4716 18.3142H21.4716H21.4716H21.4716C21.9438 18.2614 22.4156 18.2086 22.8421 18.2244C23.8322 18.2244 24.8224 18.2245 25.8917 18.274C25.8917 18.274 25.9907 18.3829 25.9808 18.4324C25.9737 18.4678 25.9414 18.5032 25.909 18.5386L25.909 18.5386L25.909 18.5386C25.899 18.5496 25.889 18.5605 25.8798 18.5714C25.8903 18.5781 25.9008 18.5847 25.9113 18.5908C23.6407 21.0074 21.3041 23.3482 18.9015 25.6129L18.9015 25.6132ZM62.8523 36.2111C63.0306 38.9547 61.5751 39.9847 59.2483 40.4106C57.4788 40.7421 55.6827 40.7053 53.8867 40.6684H53.8866C52.9995 40.6502 52.1123 40.6321 51.2284 40.6583C50.6257 40.6583 50.634 40.2931 50.6423 39.9252C50.6427 39.9062 50.6432 39.8872 50.6435 39.8682C50.644 39.8442 50.6443 39.8203 50.6443 39.7966V33.8538V27.9111V27.911C50.6443 27.396 50.6443 27.0197 51.3571 27.0494C52.2706 27.0851 53.1853 27.0693 54.1 27.0536C55.7233 27.0256 57.3463 26.9976 58.9612 27.2574C61.486 27.6634 63.0801 28.6638 62.8623 31.6253C62.7532 33.1518 62.7499 34.6841 62.8523 36.2111ZM88.427 30.6744V33.9528C88.427 34.2497 88.4292 34.5473 88.4314 34.8452C88.4373 35.6407 88.4432 36.4386 88.4072 37.2312C88.4426 38.5526 88.0291 39.847 87.2343 40.9029C86.4394 41.9589 85.3101 42.7141 84.0309 43.0452C80.8724 43.9735 77.5247 44.0487 74.3278 43.2631C71.2485 42.55 69.3475 40.6681 69.199 37.3897C69.0094 34.9658 69.0326 32.5298 69.2683 30.1099C69.7337 26.7423 71.3178 25.0487 74.6842 24.385C77.6301 23.7722 80.6763 23.8331 83.5952 24.5633C85.0013 24.829 86.2643 25.5935 87.1519 26.7162C88.0396 27.839 88.4924 29.2445 88.427 30.6744ZM84.3463 38.8694C84.8281 38.2218 85.0606 37.4222 85.0012 36.6172C85.0309 34.8343 85.0309 33.0119 85.0111 31.2192C85.0787 30.3618 84.8253 29.51 84.3001 28.829C83.775 28.1481 83.0156 27.6868 82.1695 27.5347C80.1578 26.9677 78.0347 26.9233 76.0011 27.4059C73.8228 27.9012 72.506 29.06 72.7139 31.5659C72.7534 32.0802 72.7403 32.5945 72.7271 33.1117C72.7205 33.3714 72.7139 33.6318 72.7139 33.8934V36.7459C72.6547 37.4935 72.8632 38.2377 73.3022 38.8456C73.7411 39.4534 74.3819 39.8853 75.11 40.064C77.4625 40.8619 80.008 40.8896 82.3774 40.1432C83.1654 39.9691 83.8644 39.5169 84.3463 38.8694Z" fill="#4A7185"/>
</svg>
