<svg width="66" height="30" viewBox="0 0 66 30" fill="none" xmlns="http://www.w3.org/2000/svg">
<path fill-rule="evenodd" clip-rule="evenodd" d="M23.624 29.0303C23.3991 29.0303 23.1764 28.986 22.9685 28.8999C22.7607 28.8137 22.5719 28.6875 22.4128 28.5284C22.2538 28.3693 22.1276 28.1804 22.0415 27.9725C21.9554 27.7646 21.9111 27.5418 21.9111 27.3168V1.71347C21.9111 1.25902 22.0916 0.823219 22.4128 0.501878C22.7341 0.180536 23.1698 0 23.624 0C24.0783 0 24.514 0.180536 24.8352 0.501878C25.1565 0.823219 25.3369 1.25902 25.3369 1.71347V27.3168C25.3382 27.5422 25.2948 27.7655 25.2092 27.974C25.1236 28.1825 24.9975 28.372 24.8382 28.5313C24.6788 28.6907 24.4895 28.8169 24.2811 28.9025C24.0727 28.9882 23.8493 29.0316 23.624 29.0303ZM15.9211 4.40762C17.0148 4.40762 17.9014 3.52074 17.9014 2.42671C17.9014 1.33268 17.0148 0.445801 15.9211 0.445801C14.8275 0.445801 13.9409 1.33268 13.9409 2.42671C13.9409 3.52074 14.8275 4.40762 15.9211 4.40762ZM10.0595 27.6833H1.71289C1.2586 27.6833 0.822918 27.5027 0.501688 27.1814C0.180459 26.8601 0 26.4243 0 25.9698C0 25.5154 0.180459 25.0795 0.501688 24.7582C0.822918 24.4368 1.2586 24.2563 1.71289 24.2563H10.0595C11.7229 24.2563 13.921 23.7611 13.921 19.4724C13.9317 18.6588 13.6415 17.8699 13.1059 17.2574C12.5704 16.6449 11.8275 16.252 11.0199 16.1544H8.56446C4.53471 16.1544 1.00001 12.8561 1.00001 9.09241V7.40862C1.00001 3.79346 4.40599 0.624023 8.28723 0.624023H10.9902C11.4445 0.624023 11.8802 0.80456 12.2014 1.1259C12.5227 1.44724 12.7031 1.88305 12.7031 2.33749C12.7031 2.79194 12.5227 3.2278 12.2014 3.54914C11.8802 3.87049 11.4445 4.05102 10.9902 4.05102H8.28723C6.30701 4.05102 4.4357 5.65551 4.4357 7.40862V9.09241C4.4357 10.9941 6.41592 12.7274 8.56446 12.7274H11.0298C12.7485 12.8263 14.3638 13.581 15.5427 14.8359C16.7217 16.0908 17.3745 17.7503 17.3666 19.4724C17.3567 24.6129 14.6239 27.6833 10.0595 27.6833ZM65.5649 26.673C65.5649 27.7671 64.6784 28.654 63.5847 28.654C62.4911 28.654 61.6045 27.7671 61.6045 26.673C61.6045 25.579 62.4911 24.6921 63.5847 24.6921C64.6784 24.6921 65.5649 25.579 65.5649 26.673ZM28.04 15.9167H33.6243C34.0786 15.9167 34.5142 15.7362 34.8355 15.4149C35.1567 15.0935 35.3372 14.6577 35.3372 14.2033C35.3372 13.7488 35.1567 13.313 34.8355 12.9916C34.5142 12.6703 34.0786 12.4897 33.6243 12.4897H28.04C27.5858 12.4897 27.1501 12.6703 26.8288 12.9916C26.5076 13.313 26.3271 13.7488 26.3271 14.2033C26.3271 14.6577 26.5076 15.0935 26.8288 15.4149C27.1501 15.7362 27.5858 15.9167 28.04 15.9167ZM38.5449 29.0303C38.32 29.0303 38.0972 28.986 37.8894 28.8999C37.6816 28.8137 37.4928 28.6875 37.3337 28.5284C37.1747 28.3693 37.0485 28.1804 36.9624 27.9725C36.8763 27.7646 36.832 27.5418 36.832 27.3168V1.71347C36.832 1.25902 37.0125 0.823219 37.3337 0.501878C37.6549 0.180536 38.0906 0 38.5449 0C38.9992 0 39.4349 0.180536 39.7561 0.501878C40.0774 0.823219 40.2578 1.25902 40.2578 1.71347V27.3168C40.2591 27.5422 40.2157 27.7655 40.1301 27.974C40.0445 28.1825 39.9184 28.372 39.7591 28.5313C39.5997 28.6907 39.4104 28.8169 39.202 28.9025C38.9936 28.9882 38.7702 29.0316 38.5449 29.0303ZM54.9119 28.3865H58.8724C59.3267 28.3865 59.7623 28.206 60.0836 27.8846C60.4048 27.5633 60.5853 27.1274 60.5853 26.673C60.5853 26.2185 60.4048 25.7827 60.0836 25.4614C59.7623 25.14 59.3267 24.9595 58.8724 24.9595H54.9119C53.6864 24.9569 52.5118 24.4687 51.6453 23.6018C50.7787 22.735 50.2907 21.56 50.2881 20.3341V1.71347C50.2881 1.25902 50.1076 0.823219 49.7864 0.501878C49.4652 0.180536 49.0295 0 48.5752 0C48.1209 0 47.6852 0.180536 47.364 0.501878C47.0428 0.823219 46.8623 1.25902 46.8623 1.71347V20.3341C46.8649 22.4689 47.7139 24.5155 49.2229 26.0251C50.7319 27.5346 52.7778 28.3839 54.9119 28.3865Z" fill="#4A7185"/>
</svg>
