<svg width="1440" height="544" viewBox="0 0 1440 544" fill="none" xmlns="http://www.w3.org/2000/svg">
<path d="M-2 152.5C42.8333 165.167 158.7 180.3 263.5 139.5C394.5 88.5001 321.5 -25 263.5 6.00005C220.373 29.0506 219 135 321.5 172.5C424 210 440.048 171.311 547 225.5C659.5 282.5 634 306 695 286C756 266 980 286.5 1088.5 438.5C1197 590.5 1283.5 392.5 1209 372.5C1134.5 352.5 1092 489 1138 534C1177.29 572.431 1280.7 472.017 1440 472.676" stroke="#CCD4DD"/>
<path d="M321.5 172.5C219 135 220.373 29.0506 263.5 6.00005C321.5 -25 394.5 88.5001 263.5 139.5C246.508 146.115 229.224 151.26 212 155.184M547 225.5C659.5 282.5 634 306 695 286C706.857 282.113 724.872 279.755 747 279.596M1088.5 438.5C1055.91 392.839 1012.89 359.044 967 334.65" stroke="#0176FF"/>
</svg>
