<svg width="1440" height="556" viewBox="0 0 1440 556" fill="none" xmlns="http://www.w3.org/2000/svg">
<path d="M-2 164.5C42.8333 177.167 158.7 192.3 263.5 151.5C394.5 100.5 321.5 -13 263.5 18.0001C220.373 41.0506 219 147 321.5 184.5C424 222 440.048 183.311 547 237.5C659.5 294.5 634 318 695 298C756 278 980 298.5 1088.5 450.5C1197 602.5 1283.5 404.5 1209 384.5C1134.5 364.5 1092 501 1138 546C1177.29 584.431 1280.7 484.017 1440 484.676" stroke="#CCD4DD"/>
<path d="M321.5 184.5C219 147 220.373 41.0506 263.5 18.0001C321.5 -13 394.5 100.5 263.5 151.5C246.508 158.115 229.224 163.26 212 167.184M547 237.5C659.5 294.5 634 318 695 298C706.857 294.113 724.872 291.755 747 291.596M1088.5 450.5C1055.91 404.839 1012.89 371.044 967 346.65" stroke="#0176FF"/>
<path d="M266 109H145L205.5 3L235.75 56" stroke="#0176FF" stroke-width="2" stroke-linecap="round"/>
<path d="M606.666 205.264L699.344 296.941L574.014 331.47L606.666 205.264Z" stroke="#0176FF" stroke-width="2" stroke-linecap="round"/>
<path d="M699.344 296.941L626.852 278.535" stroke="#0176FF" stroke-width="2" stroke-linecap="round"/>
<path d="M626.851 278.535L606.665 205.265" stroke="#0176FF" stroke-width="2" stroke-linecap="round"/>
<path d="M626.852 278.535L574.014 331.47" stroke="#0176FF" stroke-width="2" stroke-linecap="round"/>
<path d="M994.362 374.476L1055.32 369.036L1090.51 419.105L1064.74 474.615L1003.79 480.056L968.596 429.987L994.362 374.476Z" stroke="#0176FF" stroke-width="2" stroke-linecap="round"/>
<path d="M1007.23 392.784L1066.71 420.391L1013.06 458.095L1007.23 392.784Z" stroke="#0176FF" stroke-width="2" stroke-linecap="round"/>
<path d="M1090.51 419.104L1066.71 420.392L1055.32 369.036L1007.23 392.785L968.596 429.987L1013.06 458.095" stroke="#0176FF" stroke-width="2" stroke-linecap="round"/>
<path d="M994.362 374.476L1007.23 392.785" stroke="#0176FF" stroke-width="2" stroke-linecap="round"/>
<path d="M1066.7 420.391L1064.74 474.615L1013.06 458.095L1003.78 480.055" stroke="#0176FF" stroke-width="2" stroke-linecap="round"/>
</svg>
