<svg width="360" height="496" viewBox="0 0 360 496" fill="none" xmlns="http://www.w3.org/2000/svg">
<g opacity="0.5">
<path opacity="0.3" d="M535.004 306.873C597.339 210.239 548.394 105.397 425.723 72.7312L425.712 72.7351C302.995 40.0543 152.965 91.9034 90.63 188.537C28.2952 285.17 77.2728 389.97 199.99 422.651C322.661 455.317 472.669 403.506 535.004 306.873Z" stroke="white"/>
<path opacity="0.3" d="M438.833 311.319C475.273 254.829 446.661 193.54 374.95 174.445L374.943 174.447C303.206 155.342 215.501 185.652 179.062 242.142C142.622 298.632 171.253 359.896 242.991 379C314.702 398.096 402.394 367.809 438.833 311.319Z" stroke="white"/>
<path d="M420.227 161.511C464.786 295.568 206.066 380.107 138.795 254.47L169.288 321.085C211.47 400.714 325.913 389.598 379.187 360.879C417.737 340.533 458.323 306.267 456.235 251.118C456.846 232.074 426.04 177.213 418.956 158.469C419.414 159.462 419.815 160.483 420.226 161.492L420.227 161.511Z" stroke="white"/>
<path d="M344.092 106.051C415.803 125.146 444.415 186.435 407.976 242.925C371.536 299.415 283.844 329.702 212.133 310.607C140.395 291.502 111.764 230.238 148.204 173.748C184.643 117.259 272.348 86.9487 344.085 106.053L344.092 106.051ZM344.413 209.469C353.78 206.663 359.364 199.029 356.897 192.417C355.57 188.869 352.174 186.328 347.867 185.185C344.154 184.194 339.77 184.233 335.436 185.529L262.352 207.494L253.07 192.004C251.407 189.223 248.408 187.279 244.809 186.322C240.405 185.148 235.075 185.44 230.167 187.467C221.198 191.135 216.936 199.118 220.64 205.303L241.637 240.338L344.419 209.467L344.413 209.469Z" stroke="white" stroke-width="2"/>
</g>
</svg>
