<svg width="392" height="254" viewBox="0 0 392 254" fill="none" xmlns="http://www.w3.org/2000/svg">
<rect width="1404" height="624" transform="translate(-742 -119)" fill="white"/>
<path d="M-686 139.778C-641.167 152.445 -525.3 167.578 -420.5 126.778C-289.5 75.7784 -362.5 -37.7217 -420.5 -6.72163C-463.627 16.329 -469.814 159.683 -362.5 139.778C-113 93.5 54.5 -6.72163 78 28.7784C144.181 128.755 135 139.278 196 119.278C257 99.2784 367 45.5 494.5 75.7784" stroke="#DFE7F0"/>
<path d="M-420.5 -6.72168C-449.825 8.95216 -462.071 80.2506 -433.166 118.022M78 28.7783C144.181 128.755 135 139.278 196 119.278M-97.5 67.446C-145.04 83.716 -200.99 101.951 -264 118.022" stroke="#0176FF"/>
<path d="M124.18 24.2257L173.636 19.8121L202.186 60.4343L181.281 105.471L131.826 109.885L103.276 69.2631L124.18 24.2257Z" stroke="#0176FF" stroke-width="2" stroke-linecap="round"/>
<path d="M134.62 39.0801L182.874 61.4779L139.35 92.0678L134.62 39.0801Z" stroke="#0176FF" stroke-width="2" stroke-linecap="round"/>
<path d="M202.186 60.434L182.874 61.4784L173.636 19.8123L134.621 39.0805L103.276 69.2634L139.35 92.0682" stroke="#0176FF" stroke-width="2" stroke-linecap="round"/>
<path d="M124.18 24.2257L134.62 39.0804" stroke="#0176FF" stroke-width="2" stroke-linecap="round"/>
<path d="M182.874 61.478L181.281 105.471L139.35 92.0678L131.826 109.885" stroke="#0176FF" stroke-width="2" stroke-linecap="round"/>
</svg>
