<svg width="383" height="232" viewBox="0 0 383 232" fill="none" xmlns="http://www.w3.org/2000/svg">
<g clip-path="url(#clip0_1_9)">
<rect width="383" height="229" transform="translate(2 3)" fill="white"/>
<path d="M-116 164.5C-71.1667 177.167 44.7 192.3 149.5 151.5C280.5 100.5 207.5 -13 149.5 18.0001C106.373 41.0506 105 147 207.5 184.5C310 222 326.048 183.311 433 237.5C545.5 294.5 520 318 581 298C642 278 866 298.5 974.5 450.5C1083 602.5 1169.5 404.5 1095 384.5C1020.5 364.5 978 501 1024 546C1063.29 584.431 1166.7 484.017 1326 484.676" stroke="#CCD4DD"/>
<path d="M209.5 183.778C107 146.278 108.373 40.3289 151.5 17.2784C209.5 -13.7217 282.5 99.7783 151.5 150.778C134.508 157.393 117.224 162.538 100 166.462M435 236.778C547.5 293.778 522 317.278 583 297.278C594.857 293.391 612.872 291.033 635 290.874M976.5 449.778C943.91 404.117 900.89 370.322 855 345.928" stroke="#0176FF"/>
<path d="M152 109H31L91.5 3L121.75 56" stroke="#0176FF" stroke-width="2" stroke-linecap="round"/>
</g>
<defs>
<clipPath id="clip0_1_9">
<rect width="1440" height="556" fill="white" transform="translate(-114)"/>
</clipPath>
</defs>
</svg>
