<svg width="392" height="266" viewBox="0 0 392 266" fill="none" xmlns="http://www.w3.org/2000/svg">
<rect width="1404" height="624" transform="translate(-56 -107)" fill="white"/>
<path d="M0 151.778C44.8333 164.445 160.7 179.578 265.5 138.778C396.5 87.7784 323.5 -25.7217 265.5 5.27837C222.373 28.329 216.186 171.683 323.5 151.778C573 105.5 740.5 5.27837 764 40.7784C830.181 140.755 821 151.278 882 131.278C943 111.278 1053 57.5 1180.5 87.7784" stroke="#DFE7F0"/>
<path d="M265.5 5.27832C236.175 20.9522 223.929 92.2506 252.834 130.022M764 40.7783C830.181 140.755 821 151.278 882 131.278M588.5 79.446C540.96 95.716 485.01 113.951 422 130.022" stroke="#0176FF"/>
<path d="M241 106H148L194.5 25L217.75 65.5" stroke="#0176FF" stroke-width="2" stroke-linecap="round"/>
</svg>
