<svg width="392" height="266" viewBox="0 0 392 266" fill="none" xmlns="http://www.w3.org/2000/svg">
<rect width="1404" height="624" transform="translate(-399 -107)" fill="white"/>
<path d="M-343 151.778C-298.167 164.445 -182.3 179.578 -77.5 138.778C53.5 87.7784 -19.5 -25.7217 -77.5 5.27837C-120.627 28.329 -126.814 171.683 -19.5 151.778C230 105.5 397.5 5.27837 421 40.7784C487.181 140.755 478 151.278 539 131.278C600 111.278 710 57.5 837.5 87.7784" stroke="#DFE7F0"/>
<path d="M-77.5 5.27832C-106.825 20.9522 -119.071 92.2506 -90.1657 130.022M421 40.7783C487.181 140.755 478 151.278 539 131.278M245.5 79.446C197.96 95.716 142.01 113.951 79 130.022" stroke="#0176FF"/>
<path d="M137.205 22.2804L208.496 92.8009L112.088 119.362L137.205 22.2804Z" stroke="#0176FF" stroke-width="2" stroke-linecap="round"/>
<path d="M208.496 92.8009L152.732 78.6422" stroke="#0176FF" stroke-width="2" stroke-linecap="round"/>
<path d="M152.732 78.6421L137.204 22.2805" stroke="#0176FF" stroke-width="2" stroke-linecap="round"/>
<path d="M152.732 78.6421L112.088 119.362" stroke="#0176FF" stroke-width="2" stroke-linecap="round"/>
</svg>
