<svg width="298" height="225" viewBox="0 0 298 225" fill="none" xmlns="http://www.w3.org/2000/svg">
<path d="M204.037 11.7274L228.907 22.2435L294.843 2.57837L204.037 11.7274Z" stroke="white" stroke-width="2" stroke-linecap="round"/>
<path d="M294.843 2.57837L240.475 29.7625L271.605 43.0654L294.843 2.57837Z" stroke="white" stroke-width="2" stroke-linecap="round"/>
<path d="M232.956 50.5846L239.897 29.7627L252.621 35.045L232.956 50.5846Z" stroke="white" stroke-width="2" stroke-linecap="round"/>
<path d="M228.907 22.2435L232.535 51.1628L239.897 29.7625L296 2L228.907 22.2435Z" stroke="white" stroke-width="2" stroke-linecap="round"/>
<path opacity="0.3" d="M-571 144.861C-562.999 178.504 -508.477 240.7 -354.395 220.341C-161.792 194.892 -47.8502 15.0138 62.6214 53.4764C173.093 91.939 168.177 144.861 130.871 144.861C93.565 144.861 99.6381 83.263 229.775 32.0762" stroke="white"/>
<path d="M62.6214 53.4764C173.093 91.939 168.177 144.861 130.871 144.861C93.565 144.861 99.6381 83.263 229.775 32.0762" stroke="white"/>
</svg>
